HIERARCHY
ROOT root
{
	OFFSET	0	13.1	24.9
	CHANNELS 6  Xposition Yposition Zposition Xrotation Yrotation Zrotation
	JOINT spine_1
	{
		OFFSET	0	9.99999	0
		CHANNELS 3  Xrotation Yrotation Zrotation
		JOINT spine_2
		{
			OFFSET	0	112	-10
			CHANNELS 3  Xrotation Yrotation Zrotation
			JOINT spine_3
			{
				OFFSET	0	206.5	19.3
				CHANNELS 3  Xrotation Yrotation Zrotation
				JOINT spine_4
				{
					OFFSET	0	110.4	14.6
					CHANNELS 3  Xrotation Yrotation Zrotation
					JOINT neck_1
					{
						OFFSET	0	71.8	-50.3
						CHANNELS 3  Xrotation Yrotation Zrotation
						JOINT neck_2
						{
							OFFSET	0	86.2	-25.8
							CHANNELS 3  Xrotation Yrotation Zrotation
							JOINT head_ee
							{
								OFFSET	0	179.8	-8.7
								CHANNELS 3  Xrotation Yrotation Zrotation
								End Site
								{
									OFFSET	1	0	0
								}
							}
						}
					}
					JOINT left_clavicle
					{
						OFFSET	-43.2	22.4	-70.8
						CHANNELS 3  Xrotation Yrotation Zrotation
						JOINT left_shoulder
						{
							OFFSET	-93.9	-5.79999	48.7
							CHANNELS 3  Xrotation Yrotation Zrotation
							JOINT left_elbow
							{
								OFFSET	-291.4	-30.8	15.2
								CHANNELS 3  Xrotation Yrotation Zrotation
								JOINT left_lowarm_twist
								{
									OFFSET	-110.7	-3.89999	13.6
									CHANNELS 3  Xrotation Yrotation Zrotation
									JOINT left_hand
									{
										OFFSET	-110.7	-3.89999	13.6
										CHANNELS 3  Xrotation Yrotation Zrotation
										JOINT left_ee
										{
											OFFSET	-80.8	-5.10001	12.1
											CHANNELS 3  Xrotation Yrotation Zrotation
											End Site
											{
												OFFSET	1	0	0
											}
										}
									}
								}
							}
						}
					}
					JOINT right_clavicle
					{
						OFFSET	43.2	22.4	-70.8
						CHANNELS 3  Xrotation Yrotation Zrotation
						JOINT right_shoulder
						{
							OFFSET	93.9	-5.79999	48.7
							CHANNELS 3  Xrotation Yrotation Zrotation
							JOINT right_elbow
							{
								OFFSET	291.4	-30.8	15.2
								CHANNELS 3  Xrotation Yrotation Zrotation
								JOINT right_lowarm_twist
								{
									OFFSET	110.7	-3.89999	13.6
									CHANNELS 3  Xrotation Yrotation Zrotation
									JOINT right_hand
									{
										OFFSET	110.7	-3.89999	13.6
										CHANNELS 3  Xrotation Yrotation Zrotation
										JOINT right_ee
										{
											OFFSET	80.8	-5.10001	12.1
											CHANNELS 3  Xrotation Yrotation Zrotation
											End Site
											{
												OFFSET	1	0	0
											}
										}
									}
								}
							}
						}
					}
				}
			}
		}
	}
	JOINT left_hip
	{
		OFFSET	-82.8	-127.5	0.300001
		CHANNELS 3  Xrotation Yrotation Zrotation
		JOINT left_knee
		{
			OFFSET	-28.2	-396.7	2.2
			CHANNELS 3  Xrotation Yrotation Zrotation
			JOINT left_ankle
			{
				OFFSET	-11.7	-411.3	35.4
				CHANNELS 3  Xrotation Yrotation Zrotation
				JOINT left_toes
				{
					OFFSET	0	-60	-88.6
					CHANNELS 3  Xrotation Yrotation Zrotation
					JOINT left_foot_ee
					{
						OFFSET	-22.5	-16.5	-42.2
						CHANNELS 3  Xrotation Yrotation Zrotation
						End Site
						{
							OFFSET	1	0	0
						}
					}
				}
			}
		}
	}
	JOINT right_hip
	{
		OFFSET	82.8	-127.5	0.300001
		CHANNELS 3  Xrotation Yrotation Zrotation
		JOINT right_knee
		{
			OFFSET	28.2	-396.7	2.2
			CHANNELS 3  Xrotation Yrotation Zrotation
			JOINT right_ankle
			{
				OFFSET	11.7	-411.3	35.4
				CHANNELS 3  Xrotation Yrotation Zrotation
				JOINT right_toes
				{
					OFFSET	0	-60	-88.6
					CHANNELS 3  Xrotation Yrotation Zrotation
					JOINT right_foot_ee
					{
						OFFSET	22.5	-16.5	-42.2
						CHANNELS 3  Xrotation Yrotation Zrotation
						End Site
						{
							OFFSET	1	0	0
						}
					}
				}
			}
		}
	}
}
MOTION
Frames: 12
Frame Time: 0.02
3198.12 698.044 -1578.86 -26.2891 71.3732 26.4248 1.41706 0.407498 1.63968 1.4185 0.30235 1.66227 1.42757 -0.0116455 1.6895 1.42368 0.255288 1.67015 -0.391927 19.5251 -4.04429 0.942585 38.2292 -2.57289 -0.0 0.0 -0.0 -0.133527 13.3241 1.3522 -38.7255 -13.2157 67.506 1.36564 -34.0766 0.418535 -35.1181 -2.44757 3.68845 0.448751 7.33437 5.98044 -0.0 0.0 -0.0 12.404 18.2529 -24.9764 11.375 24.9054 -56.1873 2.4824 50.8739 -1.18083 20.8653 -0.257354 2.63823 2.54474 22.626 -7.10519 0.0 0.0 0.0 36.8491 -9.04723 -13.7398 -5.99319 0.199954 0.897626 -23.7873 6.49915 3.58048 7.33753 -0.0 -0.0 -0.0 0.0 -0.0 1.60746 19.3017 0.212186 -35.9497 0.229399 -5.42296 38.4796 -1.21805 4.73481 5.92559 -0.0 -0.0 0.0 0.0 0.0 
3177.73 698.263 -1569.21 -23.9929 70.1787 24.3628 1.43313 0.488074 1.77193 1.4348 0.374352 1.79938 1.44691 0.0342913 1.83758 1.44235 0.324024 1.80912 -0.476144 19.5537 -3.89591 0.83081 38.1796 -2.37454 -0.0 0.0 -0.0 -0.079914 13.4883 1.45963 -37.7755 -13.5463 67.7869 1.35745 -33.9168 0.413955 -35.2403 -2.45978 3.69829 0.649682 6.73481 7.05959 -0.0 0.0 -0.0 12.2525 18.1488 -24.6331 10.934 24.6426 -56.3463 2.51751 51.267 -1.20815 20.4872 -0.261288 2.59009 2.57612 22.3104 -7.46667 0.0 0.0 0.0 37.4706 -9.40528 -13.5993 -8.60506 0.257501 1.29427 -23.6541 3.89465 3.57022 7.39981 -0.0 -0.0 -0.0 0.0 -0.0 0.930897 22.6629 1.03718 -35.4503 0.20297 -5.35092 38.243 -1.6899 4.7111 4.38372 -0.0 -0.0 0.0 0.0 0.0 
3157.18 695.957 -1565.84 -22.2703 68.281 22.8605 1.44344 0.612487 1.83125 1.44517 0.49474 1.86649 1.46173 0.140716 1.92579 1.45683 0.443039 1.87943 -0.25977 19.5291 -3.99971 1.09274 38.1765 -2.57084 -0.0 0.0 -0.0 -0.409307 13.7584 0.953537 -37.1565 -13.6718 67.865 1.35142 -33.7988 0.410594 -35.3285 -2.4686 3.70537 0.789222 6.31681 7.81374 -0.0 0.0 -0.0 12.2166 18.5625 -24.5262 10.6688 24.6914 -56.9767 2.53916 51.5061 -1.22506 20.0711 -0.265251 2.5371 2.56676 21.7029 -7.70194 0.0 0.0 0.0 37.9487 -9.65151 -13.398 -10.4395 0.287081 1.5742 -23.3385 1.87954 3.53516 7.46272 -0.0 -0.0 -0.0 0.0 -0.0 -0.767247 25.0024 1.89793 -35.4179 0.201278 -5.34624 37.2883 -2.78664 4.61963 3.18408 -0.0 -0.0 0.0 0.0 0.0 
3130.13 697.109 -1559.88 -22.3113 68.1078 22.6104 1.43321 0.565507 1.91014 1.43513 0.442838 1.94224 1.45058 0.0752719 1.99064 1.44526 0.388651 1.9538 0.00751762 19.5072 -4.07931 1.41186 38.1497 -2.75835 -0.0 0.0 -0.0 -0.290344 13.8927 1.16431 -35.9353 -14.0848 67.8459 1.34797 -33.731 0.408675 -35.9623 -2.53235 3.75585 0.860922 6.02078 8.17115 -0.0 0.0 -0.0 12.2677 18.9285 -24.6213 9.43271 24.3446 -58.8676 2.51859 51.279 -1.20899 19.7324 -0.268193 2.49393 2.5054 20.592 -7.83403 0.0 0.0 0.0 37.0162 -8.84214 -13.2615 -11.8107 0.303329 1.78396 -23.127 0.464036 3.51455 7.51022 -0.0 -0.0 -0.0 0.0 -0.0 -1.72546 26.6742 2.45629 -35.3016 0.195226 -5.32944 36.467 -3.66776 4.54072 1.65701 -0.0 -0.0 0.0 0.0 0.0 
3111.39 709.573 -1558.57 -20.5348 67.7977 20.868 1.41637 0.509277 1.98848 1.41849 0.381739 2.01684 1.43236 0.000713955 2.05263 1.42663 0.324813 2.02678 0.261298 19.4879 -4.15625 1.71518 38.128 -2.93773 -0.0 0.0 -0.0 -0.212532 13.9895 1.3028 -35.1094 -14.3541 67.7901 1.33973 -33.5691 0.404111 -36.4023 -2.57693 3.79048 0.91076 5.81121 8.41886 -0.0 0.0 -0.0 12.0812 19.2099 -24.1742 7.26461 23.7577 -59.9915 2.42328 50.1967 -1.13519 19.5356 -0.269785 2.46884 2.45083 19.6606 -7.91797 0.0 0.0 0.0 36.6602 -7.98196 -12.6001 -12.8462 0.31227 1.94258 -22.913 -0.287571 3.48893 7.54981 -0.0 -0.0 -0.0 0.0 -0.0 -2.82491 27.8826 3.03407 -35.512 0.206203 -5.35984 35.8306 -4.13853 4.47957 0.542118 -0.0 -0.0 0.0 0.0 0.0 
3077.18 714.515 -1547.85 -18.0101 67.2266 18.1333 1.42288 0.484407 2.05931 1.42517 0.352415 2.08594 1.43844 -0.0407275 2.1151 1.43231 0.29375 2.09501 1.21149 19.9307 -3.45085 2.80189 38.162 -2.45934 -0.0 0.0 -0.0 0.0358797 14.4784 1.76285 -33.781 -14.6086 67.5163 1.25992 -31.9679 0.360907 -36.972 -2.63504 3.83481 0.881163 5.37591 8.05201 -0.0 0.0 -0.0 11.9806 19.4617 -23.9267 4.83527 23.805 -60.9331 2.20908 47.5722 -0.973777 18.8726 -0.274513 2.3843 2.19643 15.9584 -7.94697 0.0 0.0 0.0 35.257 -6.33776 -10.2815 -17.0197 0.319214 2.58274 -19.4441 1.73121 2.94434 8.77834 -0.0 -0.0 -0.0 0.0 -0.0 -4.10078 28.2222 3.74864 -37.2496 0.301123 -5.60938 36.2734 -5.89994 4.52056 -1.55849 0.0 0.0 0.0 0.0 0.0 
3047.19 718.46 -1543.32 -14.4497 68.3942 14.4064 1.26385 0.451385 2.1611 1.2664 0.312988 2.18543 1.27889 -0.104108 2.20526 1.27219 0.245393 2.19405 1.4395 20.2334 -2.76139 3.02685 38.0938 -1.74232 -0.0 0.0 -0.0 0.0176942 14.7307 1.76243 -33.2235 -14.7723 66.4469 1.19631 -30.6504 0.327849 -37.4753 -2.68675 3.8735 0.858834 5.09673 7.79401 -0.0 0.0 -0.0 11.8786 19.5235 -23.6888 3.02773 23.7429 -61.4889 2.06599 45.658 -0.869772 18.4063 -0.277252 2.32481 2.0267 13.3598 -7.97983 0.0 0.0 0.0 34.0153 -5.01581 -8.84828 -19.9596 0.296118 3.03318 -16.994 3.54582 2.56154 9.63881 -0.0 -0.0 -0.0 0.0 -0.0 -4.75976 29.4132 4.47908 -38.3983 0.368023 -5.77274 36.6101 -7.36244 4.5548 -3.03436 0.0 0.0 0.0 0.0 0.0 
3029.62 717.398 -1539.68 -15.035 68.8159 14.0416 1.23903 0.335626 2.19977 1.2417 0.195004 2.21666 1.24975 -0.227077 2.2136 1.24294 0.125281 2.22168 1.59125 20.4434 -2.27655 3.17545 38.0392 -1.23436 -0.0 0.0 -0.0 0.0573176 14.2228 1.76838 -31.9295 -15.0203 65.1402 1.16491 -29.9867 0.312002 -37.827 -2.72308 3.90026 0.835419 4.91592 7.5673 -0.0 0.0 -0.0 11.7767 19.5678 -23.4523 1.70477 23.7051 -61.7854 1.96994 44.2949 -0.801876 18.0321 -0.279101 2.27704 1.90955 11.4894 -8.0169 0.0 0.0 0.0 33.0404 -3.8911 -8.01551 -21.8338 0.269344 3.3195 -15.1731 4.91834 2.27976 10.2885 -0.0 -0.0 -0.0 0.0 -0.0 -5.27263 30.221 5.09772 -39.2405 0.419158 -5.89168 36.8494 -8.39549 4.58089 -4.0668 0.0 0.0 0.0 0.0 0.0 
2999.48 718.834 -1535.79 -14.0028 69.3603 12.1257 1.16785 0.207902 2.30065 1.17079 0.0611239 2.30921 1.17375 -0.379168 2.27871 1.1665 -0.0146303 2.30998 -1.16719 20.496 -0.584079 -0.169115 37.4284 1.58017 -0.0 0.0 -0.0 0.640636 12.1638 2.50792 -28.3186 -15.6462 63.6397 1.11036 -28.8117 0.285222 -37.9423 -2.73503 3.90899 0.76471 5.70136 7.40967 -0.0 0.0 -0.0 11.7007 19.6339 -23.2741 -0.937345 23.6147 -62.0843 1.90812 43.3826 -0.759055 17.4895 -0.281226 2.20777 1.8317 9.54953 -8.33688 0.0 0.0 0.0 30.6375 -2.27877 -7.19853 -23.5457 0.236714 3.58016 -13.4276 6.89959 2.01088 10.8078 -0.0 -0.0 -0.0 0.0 -0.0 -4.8633 30.0534 4.99955 -39.8826 0.459315 -5.98185 35.8077 -9.25557 4.48586 -5.05865 0.0 0.0 0.0 0.0 0.0 
2976.82 723.936 -1537.55 -11.2697 70.2114 9.50073 1.02409 0.113688 2.34917 1.02716 -0.0359836 2.35164 1.02622 -0.488585 2.30063 1.01885 -0.119216 2.34889 -3.86185 20.5275 2.11288 -3.39424 36.0476 5.32385 -0.0 0.0 -0.0 0.860649 10.6925 2.7343 -25.4737 -16.1133 62.065 1.07329 -27.9978 0.267586 -38.2507 -2.76708 3.93221 0.265119 8.09318 5.0868 -0.0 0.0 -0.0 11.6145 19.643 -23.0767 -3.64211 23.3215 -62.2814 1.77089 41.255 -0.66665 17.3758 -0.281589 2.19325 1.71674 7.59138 -8.39728 0.0 0.0 0.0 29.2994 -0.704839 -5.5422 -27.5716 0.129391 4.18855 -8.8452 9.82433 1.31681 11.4279 -0.0 -0.0 -0.0 0.0 -0.0 -0.695859 30.7077 2.74286 -50.6321 1.27766 -7.41647 39.4212 -11.6832 4.83962 -5.3454 0.0 0.0 0.0 0.0 0.0 
2960.46 733.308 -1532.91 -10.0571 70.6204 8.0164 1.14809 0.2072 2.45353 1.15143 0.0507038 2.46174 1.15418 -0.419275 2.42633 1.14596 -0.0309416 2.46207 -6.91893 19.5744 3.01571 -6.91139 34.3068 7.04305 -0.0 0.0 -0.0 1.12562 9.45237 3.07353 -23.8062 -16.3763 61.247 1.03173 -27.0705 0.248374 -39.08 -2.85386 3.9938 -0.13419 9.85152 3.2204 -0.0 0.0 -0.0 11.5517 19.6604 -22.9322 -6.16556 22.9971 -62.8477 1.63037 38.9227 -0.576142 17.0427 -0.282484 2.15072 1.40833 2.70171 -8.34867 0.0 0.0 0.0 26.9438 0.519597 -5.04956 -22.6996 0.253815 3.45145 -10.3494 11.9783 1.54618 11.0941 -0.0 -0.0 -0.0 0.0 -0.0 3.90813 30.3306 0.526503 -57.9945 1.98737 -8.3008 41.1059 -13.6233 5.01063 -6.84719 0.0 0.0 0.0 0.0 0.0 
2944.41 744.025 -1533.82 -5.50082 70.9977 3.60087 1.17885 0.199385 2.41727 1.1821 0.0452094 2.42505 1.18453 -0.416409 2.38948 1.17657 -0.0339246 2.42524 -9.02575 18.8111 3.3517 -9.28046 33.0665 7.85536 -0.0 0.0 -0.0 1.29379 7.89186 3.22698 -21.9755 -16.643 60.009 1.00331 -26.4273 0.235581 -39.6632 -2.91541 4.03636 -0.437159 11.0859 1.79543 -0.0 0.0 -0.0 11.3645 19.5926 -22.5104 -8.75229 22.6815 -63.4599 1.52071 36.9888 -0.508685 16.7826 -0.283011 2.1175 1.1569 -1.37962 -8.30729 0.0 0.0 0.0 23.6864 1.54745 -4.11472 -19.8626 0.297249 3.01833 -11.2755 13.4818 1.6896 11.1908 -0.0 -0.0 -0.0 0.0 -0.0 9.26344 31.3527 -1.87264 -62.534 2.47974 -8.79856 41.0794 -15.1346 5.03041 -7.94217 0.0 0.0 0.0 0.0 0.0 
